<svg width="22" height="22" viewBox="0 0 22 22" fill="none" xmlns="http://www.w3.org/2000/svg">
<g id="fluent:call-24-filled">
<path id="Vector" d="M7.12536 2.23574C7.1252 2.23574 7.12516 2.23551 7.12532 2.23546L8.1117 1.92041C9.0357 1.62524 10.0239 2.10282 10.4199 3.03599L11.2082 4.89499C11.5519 5.70441 11.3613 6.65682 10.737 7.24899C9.64354 8.2876 9.01694 9.8231 9.66524 11.1848C9.76472 11.3937 9.87478 11.6019 9.99545 11.8094C10.1583 12.0945 10.3383 12.3687 10.5342 12.6304C11.3585 13.732 12.8585 13.9273 14.1635 13.4915C14.9537 13.2284 15.8144 13.5318 16.2994 14.2441L17.4287 15.9032C17.9934 16.7319 17.8916 17.8741 17.1922 18.5762L16.4424 19.3288C15.6962 20.0777 14.631 20.35 13.6447 20.042C11.3173 19.316 9.17778 17.1609 7.22528 13.5767C5.27003 9.98707 4.5807 6.94007 5.15545 4.4394C5.39737 3.38739 6.14683 2.54882 7.1254 2.23602C7.12556 2.23597 7.12552 2.23574 7.12536 2.23574Z" fill="url(#paint0_linear_5_548)"/>
</g>
<defs>
<linearGradient id="paint0_linear_5_548" x1="17.2218" y1="4.45252" x2="4.86434" y2="4.9842" gradientUnits="userSpaceOnUse">
<stop stop-color="#EA5E2E"/>
<stop offset="1" stop-color="#D24A37"/>
</linearGradient>
</defs>
</svg>
