<svg width="149" height="62" viewBox="0 0 149 62" fill="none" xmlns="http://www.w3.org/2000/svg">
<path d="M55.5504 59.14H51.6204L50.9904 61H48.3054L52.1154 50.47H55.0854L58.8954 61H56.1804L55.5504 59.14ZM54.8904 57.16L53.5854 53.305L52.2954 57.16H54.8904ZM74.545 53.8C74.355 53.45 74.08 53.185 73.72 53.005C73.37 52.815 72.955 52.72 72.475 52.72C71.645 52.72 70.98 52.995 70.48 53.545C69.98 54.085 69.73 54.81 69.73 55.72C69.73 56.69 69.99 57.45 70.51 58C71.04 58.54 71.765 58.81 72.685 58.81C73.315 58.81 73.845 58.65 74.275 58.33C74.715 58.01 75.035 57.55 75.235 56.95H71.98V55.06H77.56V57.445C77.37 58.085 77.045 58.68 76.585 59.23C76.135 59.78 75.56 60.225 74.86 60.565C74.16 60.905 73.37 61.075 72.49 61.075C71.45 61.075 70.52 60.85 69.7 60.4C68.89 59.94 68.255 59.305 67.795 58.495C67.345 57.685 67.12 56.76 67.12 55.72C67.12 54.68 67.345 53.755 67.795 52.945C68.255 52.125 68.89 51.49 69.7 51.04C70.51 50.58 71.435 50.35 72.475 50.35C73.735 50.35 74.795 50.655 75.655 51.265C76.525 51.875 77.1 52.72 77.38 53.8H74.545ZM89.0458 52.525V54.655H92.4808V56.635H89.0458V58.945H92.9308V61H86.4808V50.47H92.9308V52.525H89.0458ZM111.516 61H108.951L104.661 54.505V61H102.096V50.47H104.661L108.951 56.995V50.47H111.516V61ZM120.44 55.72C120.44 54.68 120.665 53.755 121.115 52.945C121.565 52.125 122.19 51.49 122.99 51.04C123.8 50.58 124.715 50.35 125.735 50.35C126.985 50.35 128.055 50.68 128.945 51.34C129.835 52 130.43 52.9 130.73 54.04H127.91C127.7 53.6 127.4 53.265 127.01 53.035C126.63 52.805 126.195 52.69 125.705 52.69C124.915 52.69 124.275 52.965 123.785 53.515C123.295 54.065 123.05 54.8 123.05 55.72C123.05 56.64 123.295 57.375 123.785 57.925C124.275 58.475 124.915 58.75 125.705 58.75C126.195 58.75 126.63 58.635 127.01 58.405C127.4 58.175 127.7 57.84 127.91 57.4H130.73C130.43 58.54 129.835 59.44 128.945 60.1C128.055 60.75 126.985 61.075 125.735 61.075C124.715 61.075 123.8 60.85 122.99 60.4C122.19 59.94 121.565 59.305 121.115 58.495C120.665 57.685 120.44 56.76 120.44 55.72ZM148.831 50.47L145.186 57.52V61H142.621V57.52L138.976 50.47H141.886L143.926 54.88L145.951 50.47H148.831Z" fill="url(#paint0_linear_5_505)"/>
<path d="M1 55.5H41" stroke="black"/>
<path d="M5.825 0.449999V18H1.55V0.449999H5.825ZM24.623 18H20.348L13.198 7.175V18H8.92305V0.449999H13.198L20.348 11.325V0.449999H24.623V18ZM39.1469 0.449999V3.875H31.9969V7.575H37.3469V10.9H31.9969V18H27.7219V0.449999H39.1469ZM49.6938 18.175C48.0438 18.175 46.5271 17.7917 45.1438 17.025C43.7771 16.2583 42.6854 15.1917 41.8688 13.825C41.0687 12.4417 40.6687 10.8917 40.6687 9.175C40.6687 7.45833 41.0687 5.91667 41.8688 4.55C42.6854 3.18333 43.7771 2.11667 45.1438 1.35C46.5271 0.583333 48.0438 0.2 49.6938 0.2C51.3438 0.2 52.8521 0.583333 54.2188 1.35C55.6021 2.11667 56.6854 3.18333 57.4688 4.55C58.2688 5.91667 58.6688 7.45833 58.6688 9.175C58.6688 10.8917 58.2688 12.4417 57.4688 13.825C56.6688 15.1917 55.5854 16.2583 54.2188 17.025C52.8521 17.7917 51.3438 18.175 49.6938 18.175ZM49.6938 14.275C51.0938 14.275 52.2104 13.8083 53.0437 12.875C53.8938 11.9417 54.3188 10.7083 54.3188 9.175C54.3188 7.625 53.8938 6.39167 53.0437 5.475C52.2104 4.54167 51.0938 4.075 49.6938 4.075C48.2771 4.075 47.1438 4.53333 46.2938 5.45C45.4604 6.36667 45.0438 7.60833 45.0438 9.175C45.0438 10.725 45.4604 11.9667 46.2938 12.9C47.1438 13.8167 48.2771 14.275 49.6938 14.275ZM21.425 25.45V43H17.15V32.475L13.225 43H9.775L5.825 32.45V43H1.55V25.45H6.6L11.525 37.6L16.4 25.45H21.425ZM35.4242 39.9H28.8742L27.8242 43H23.3492L29.6992 25.45H34.6492L40.9992 43H36.4742L35.4242 39.9ZM34.3242 36.6L32.1492 30.175L29.9992 36.6H34.3242ZM51.8818 43L48.2318 36.375H47.2068V43H42.9318V25.45H50.1068C51.4902 25.45 52.6652 25.6917 53.6318 26.175C54.6152 26.6583 55.3485 27.325 55.8318 28.175C56.3152 29.0083 56.5568 29.9417 56.5568 30.975C56.5568 32.1417 56.2235 33.1833 55.5568 34.1C54.9068 35.0167 53.9402 35.6667 52.6568 36.05L56.7068 43H51.8818ZM47.2068 33.35H49.8568C50.6402 33.35 51.2235 33.1583 51.6068 32.775C52.0068 32.3917 52.2068 31.85 52.2068 31.15C52.2068 30.4833 52.0068 29.9583 51.6068 29.575C51.2235 29.1917 50.6402 29 49.8568 29H47.2068V33.35ZM69.4154 43L63.5154 35.25V43H59.2404V25.45H63.5154V33.15L69.3654 25.45H74.3904L67.5904 34.05L74.6404 43H69.4154ZM80.9471 28.875V32.425H86.6721V35.725H80.9471V39.575H87.4221V43H76.6721V25.45H87.4221V28.875H80.9471ZM102.822 25.45V28.875H98.1725V43H93.8975V28.875H89.2475V25.45H102.822ZM109.243 25.45V43H104.968V25.45H109.243ZM128.041 43H123.766L116.616 32.175V43H112.341V25.45H116.616L123.766 36.325V25.45H128.041V43ZM142.79 31C142.473 30.4167 142.015 29.975 141.415 29.675C140.832 29.3583 140.14 29.2 139.34 29.2C137.957 29.2 136.848 29.6583 136.015 30.575C135.182 31.475 134.765 32.6833 134.765 34.2C134.765 35.8167 135.198 37.0833 136.065 38C136.948 38.9 138.157 39.35 139.69 39.35C140.74 39.35 141.623 39.0833 142.34 38.55C143.073 38.0167 143.607 37.25 143.94 36.25H138.515V33.1H147.815V37.075C147.498 38.1417 146.957 39.1333 146.19 40.05C145.44 40.9667 144.482 41.7083 143.315 42.275C142.148 42.8417 140.832 43.125 139.365 43.125C137.632 43.125 136.082 42.75 134.715 42C133.365 41.2333 132.307 40.175 131.54 38.825C130.79 37.475 130.415 35.9333 130.415 34.2C130.415 32.4667 130.79 30.925 131.54 29.575C132.307 28.2083 133.365 27.15 134.715 26.4C136.065 25.6333 137.607 25.25 139.34 25.25C141.44 25.25 143.207 25.7583 144.64 26.775C146.09 27.7917 147.048 29.2 147.515 31H142.79Z" fill="url(#paint1_linear_5_505)"/>
<defs>
<linearGradient id="paint0_linear_5_505" x1="144.505" y1="51.5714" x2="70.6064" y2="93.2754" gradientUnits="userSpaceOnUse">
<stop stop-color="#EA5E2E"/>
<stop offset="1" stop-color="#D24A37"/>
</linearGradient>
<linearGradient id="paint1_linear_5_505" x1="149" y1="-1.35831e-05" x2="36.7374" y2="91.7512" gradientUnits="userSpaceOnUse">
<stop stop-color="#782682"/>
<stop offset="1" stop-color="#41236D"/>
</linearGradient>
</defs>
</svg>
