<svg width="13" height="15" viewBox="0 0 13 15" fill="none" xmlns="http://www.w3.org/2000/svg">
<g id="Group 8">
<path id="Vector" d="M6.07041 0.25C4.46042 0.25 2.91638 0.889565 1.77795 2.028C0.639516 3.16643 -4.86374e-05 4.71047 -4.86374e-05 6.32046C-4.86374e-05 8.88562 1.80241 11.6811 5.36063 14.7369C5.55849 14.9069 5.81074 15.0002 6.07158 15C6.33241 14.9998 6.5845 14.906 6.78205 14.7357L7.0174 14.5315C10.4181 11.5554 12.1409 8.82834 12.1409 6.32046C12.1409 4.71047 11.5013 3.16643 10.3629 2.028C9.22444 0.889565 7.6804 0.25 6.07041 0.25ZM6.07041 3.98567C6.68964 3.98567 7.2835 4.23165 7.72136 4.66951C8.15922 5.10737 8.4052 5.70123 8.4052 6.32046C8.4052 6.93968 8.15922 7.53355 7.72136 7.97141C7.2835 8.40926 6.68964 8.65525 6.07041 8.65525C5.45118 8.65525 4.85732 8.40926 4.41946 7.97141C3.9816 7.53355 3.73562 6.93968 3.73562 6.32046C3.73562 5.70123 3.9816 5.10737 4.41946 4.66951C4.85732 4.23165 5.45118 3.98567 6.07041 3.98567Z" fill="url(#paint0_linear_5_540)"/>
</g>
<defs>
<linearGradient id="paint0_linear_5_540" x1="0.540254" y1="2.35715" x2="12.2226" y2="2.94817" gradientUnits="userSpaceOnUse">
<stop stop-color="#EA5E2E"/>
<stop offset="1" stop-color="#D24A37"/>
</linearGradient>
</defs>
</svg>
