<svg width="7" height="14" viewBox="0 0 7 14" fill="none" xmlns="http://www.w3.org/2000/svg">
<g id="Group 2">
<path id="Vector" d="M4.66667 8.6978C4.66667 8.18091 5.08569 7.76188 5.60259 7.76188C6.03205 7.76188 6.4064 7.4696 6.51057 7.05295L6.68221 6.36638C6.84363 5.72069 6.35527 5.09521 5.68971 5.09521C5.1247 5.09521 4.66667 4.63718 4.66667 4.07217V3.76188C4.66667 3.07521 4.66667 2.42855 6 2.42855C6.55228 2.42855 7 1.98083 7 1.42855V1.235C7 0.636154 6.55476 0.139818 5.95646 0.114318C5.69039 0.102978 5.39562 0.0952148 5.09533 0.0952148C3.28533 0.0952148 2 1.19988 2 3.22855L2 4.09522C2 4.6475 1.55228 5.09521 1 5.09521C0.447715 5.09521 0 5.54293 0 6.09522L0 6.76188C0 7.31417 0.447715 7.76188 1 7.76188C1.55228 7.76188 2 8.2096 2 8.76188L2 12.0952C2 12.8316 2.59695 13.4285 3.33333 13.4285C4.06971 13.4285 4.66667 12.8316 4.66667 12.0952V8.6978Z" fill="url(#paint0_linear_5_557)"/>
</g>
<defs>
<linearGradient id="paint0_linear_5_557" x1="6.68848" y1="1.99998" x2="-0.0573456" y2="2.21766" gradientUnits="userSpaceOnUse">
<stop stop-color="#EA5E2E"/>
<stop offset="1" stop-color="#D24A37"/>
</linearGradient>
</defs>
</svg>
