<svg width="15" height="15" viewBox="0 0 15 15" fill="none" xmlns="http://www.w3.org/2000/svg">
<g id="Group 1">
<path id="Vector" d="M8.27082 0.000922783C8.81811 -0.00117735 9.36541 0.00432315 9.91255 0.0174226L10.058 0.0226725C10.226 0.0286724 10.3918 0.0361723 10.592 0.0451721C11.39 0.0826716 11.9345 0.20867 12.4123 0.393917C12.9073 0.584414 13.3242 0.84241 13.7412 1.2594C14.1225 1.6341 14.4176 2.08735 14.606 2.58764C14.7912 3.06538 14.9172 3.61062 14.9547 4.40861C14.9637 4.60811 14.9712 4.7746 14.9772 4.9426L14.9817 5.0881C14.9951 5.63498 15.0008 6.18203 14.999 6.72907L14.9997 7.28857V8.27105C15.0016 8.81835 14.9958 9.36564 14.9825 9.91278L14.978 10.0583C14.972 10.2263 14.9645 10.392 14.9555 10.5923C14.918 11.3903 14.7905 11.9347 14.606 12.4125C14.4182 12.9133 14.1231 13.3669 13.7412 13.7415C13.3662 14.1227 12.9127 14.4178 12.4123 14.6062C11.9345 14.7915 11.39 14.9175 10.592 14.955C10.3918 14.964 10.226 14.9715 10.058 14.9775L9.91255 14.982C9.36541 14.9953 8.81812 15.001 8.27082 14.9992L7.71133 15H6.7296C6.1823 15.0018 5.63501 14.9961 5.08787 14.9827L4.94237 14.9782C4.76433 14.9718 4.58633 14.9643 4.40838 14.9557C3.61039 14.9182 3.0659 14.7907 2.58741 14.6062C2.08693 14.4182 1.6336 14.1231 1.25918 13.7415C0.877466 13.3667 0.582104 12.9132 0.393689 12.4125C0.208441 11.9347 0.0824432 11.3903 0.0449438 10.5923C0.0365911 10.4143 0.0290911 10.2363 0.0224441 10.0583L0.0186943 9.91278C0.00486715 9.36565 -0.00138343 8.81835 -5.55371e-05 8.27105L-5.55371e-05 6.72907C-0.00214873 6.18203 0.00335177 5.63499 0.0164443 5.0881L0.0216942 4.9426C0.0276941 4.7746 0.035194 4.60811 0.0441938 4.40861C0.0816933 3.60987 0.207691 3.06613 0.392939 2.58764C0.581465 2.08711 0.877405 1.63398 1.25993 1.26015C1.63409 0.878224 2.08713 0.582594 2.58741 0.393917C3.0659 0.20867 3.60964 0.0826716 4.40838 0.0451721L4.94237 0.0226725L5.08787 0.0189226C5.63475 0.00510246 6.18179 -0.00114812 6.72885 0.000172848L8.27082 0.000922783ZM7.49983 3.75087C7.00297 3.74384 6.50967 3.83563 6.04859 4.02091C5.58751 4.20619 5.16785 4.48127 4.81401 4.83014C4.46016 5.17902 4.17918 5.59474 3.9874 6.05316C3.79562 6.51157 3.69686 7.00353 3.69686 7.50044C3.69686 7.99735 3.79562 8.48931 3.9874 8.94772C4.17918 9.40613 4.46016 9.82186 4.81401 10.1707C5.16785 10.5196 5.58751 10.7947 6.04859 10.98C6.50967 11.1652 7.00297 11.257 7.49983 11.25C8.49438 11.25 9.44819 10.8549 10.1514 10.1517C10.8547 9.44842 11.2498 8.49461 11.2498 7.50006C11.2498 6.50552 10.8547 5.5517 10.1514 4.84845C9.44819 4.1452 8.49438 3.75087 7.49983 3.75087ZM7.50021 5.25047C7.50008 5.2506 7.50018 5.25084 7.50037 5.25084C7.79907 5.2454 8.09585 5.29951 8.37342 5.41C8.65115 5.52056 8.90407 5.68535 9.11739 5.89474C9.33072 6.10414 9.50019 6.35395 9.61589 6.62958C9.73159 6.90521 9.7912 7.20113 9.79125 7.50006C9.7913 7.79898 9.73178 8.09492 9.61618 8.37059C9.50057 8.64626 9.33119 8.89612 9.11793 9.10559C8.90467 9.31506 8.65181 9.47994 8.37411 9.59059C8.09642 9.70123 7.79946 9.75544 7.50058 9.75003C6.90386 9.75003 6.33157 9.51298 5.90962 9.09103C5.48767 8.66908 5.25062 8.09679 5.25062 7.50006C5.25062 6.90334 5.48767 6.33105 5.90962 5.9091C6.33144 5.48727 6.90352 5.25023 7.50006 5.2501C7.50025 5.2501 7.50035 5.25033 7.50021 5.25047ZM11.4373 2.62515C11.4373 2.62556 11.437 2.6259 11.4365 2.62591C11.1949 2.63578 10.9663 2.73867 10.7987 2.91311C10.631 3.08772 10.5373 3.32048 10.5373 3.56262C10.5373 3.80477 10.631 4.03752 10.7987 4.21213C10.9665 4.38675 11.1953 4.48967 11.4373 4.49936C11.6859 4.49936 11.9244 4.40059 12.1002 4.22477C12.276 4.04896 12.3748 3.81051 12.3748 3.56187C12.3748 3.31323 12.276 3.07478 12.1002 2.89897C11.9245 2.72334 11.6864 2.62459 11.438 2.62438C11.4376 2.62438 11.4373 2.62473 11.4373 2.62515Z" fill="url(#paint0_linear_5_554)"/>
</g>
<defs>
<linearGradient id="paint0_linear_5_554" x1="14.3325" y1="2.14291" x2="-0.0839655" y2="3.029" gradientUnits="userSpaceOnUse">
<stop stop-color="#EA5E2E"/>
<stop offset="1" stop-color="#D24A37"/>
</linearGradient>
</defs>
</svg>
